<svg height="140" viewBox="0 0 740 1008" xmlns="http://www.w3.org/2000/svg">
  <path d="M300.132 901.09H308.088V973H302.427L301.203 963.973H300.897C298.449 966.625 295.185 969.022 291.105 971.164C287.025 973.204 282.231 974.224 276.723 974.224C269.277 974.224 263.259 972.235 258.669 968.257C254.181 964.177 251.937 957.853 251.937 949.285V901.09H259.893V947.602C259.893 951.58 260.352 954.895 261.27 957.547C262.188 960.097 263.463 962.137 265.095 963.667C266.727 965.197 268.665 966.268 270.909 966.88C273.255 967.492 275.754 967.798 278.406 967.798C282.996 967.798 287.229 966.727 291.105 964.585C295.083 962.443 298.092 959.893 300.132 956.935V901.09ZM367.842 907.21H343.668V954.334C343.668 959.128 344.739 962.392 346.881 964.126C349.023 965.758 351.981 966.574 355.755 966.574C358.713 966.574 361.467 966.319 364.017 965.809C366.567 965.197 368.709 964.585 370.443 963.973L371.667 969.94C369.627 970.756 367.128 971.47 364.17 972.082C361.212 972.694 357.948 973 354.378 973C348.258 973 343.617 971.572 340.455 968.716C337.293 965.758 335.712 961.321 335.712 955.405V907.21H322.707V901.09H335.712V878.14H343.668V901.09H367.842V907.21ZM386.722 973V901.09H394.678V973H386.722ZM390.853 882.577C389.221 882.577 387.793 882.067 386.569 881.047C385.447 879.925 384.886 878.395 384.886 876.457C384.886 874.417 385.447 872.836 386.569 871.714C387.691 870.592 389.068 870.031 390.7 870.031C392.23 870.031 393.556 870.592 394.678 871.714C395.902 872.734 396.514 874.315 396.514 876.457C396.514 878.497 395.953 880.027 394.831 881.047C393.709 882.067 392.383 882.577 390.853 882.577ZM419.145 973V864.37H427.101V973H419.145ZM487.829 910.117C482.729 907.771 477.17 906.598 471.152 906.598C465.644 906.598 461.513 907.771 458.759 910.117C456.005 912.361 454.628 915.268 454.628 918.838C454.628 922.408 455.801 925.162 458.147 927.1C460.493 928.936 464.624 930.721 470.54 932.455L475.13 933.832C480.944 935.566 485.381 938.116 488.441 941.482C491.501 944.848 493.031 948.979 493.031 953.875C493.031 956.731 492.47 959.434 491.348 961.984C490.226 964.432 488.594 966.574 486.452 968.41C484.31 970.246 481.607 971.674 478.343 972.694C475.181 973.714 471.509 974.224 467.327 974.224C462.737 974.224 458.708 973.816 455.24 973C451.772 972.286 448.712 971.317 446.06 970.093L448.202 963.82C450.854 965.146 453.608 966.166 456.464 966.88C459.32 967.492 462.686 967.798 466.562 967.798C472.376 967.798 476.864 966.676 480.026 964.432C483.188 962.188 484.769 958.975 484.769 954.793C484.769 951.529 483.596 948.724 481.25 946.378C479.006 943.93 474.977 941.788 469.163 939.952L464.267 938.422C452.333 934.648 446.366 928.375 446.366 919.603C446.366 916.747 446.927 914.146 448.049 911.8C449.273 909.352 450.905 907.312 452.945 905.68C455.087 903.946 457.586 902.62 460.442 901.702C463.4 900.682 466.664 900.172 470.234 900.172C473.498 900.172 476.864 900.427 480.332 900.937C483.8 901.447 486.962 902.416 489.818 903.844L487.829 910.117Z" fill='#777'/>
  <path d="M0 370C0 70 173 0 370 0C567 0 740 70 740 370C740 670 567 740 370 740C173 740 0 670 0 370Z" fill='#fafa00'/>
  <path d="M413.6 545.2C412.2 538.2 411.267 532.367 410.8 527.7C410.8 522.567 410.567 516.733 410.1 510.2C394.233 526.067 377.2 537.733 359 545.2C341.267 552.667 322.833 556.4 303.7 556.4C271.967 556.4 247.467 547.767 230.2 530.5C213.4 513.233 205 492 205 466.8C205 444.4 211.067 425.5 223.2 410.1C235.333 394.233 251.2 381.4 270.8 371.6C290.4 361.333 312.1 353.633 335.9 348.5C359.7 342.9 383.267 339.867 406.6 339.4V300.9C406.6 287.367 404.967 275 401.7 263.8C398.9 252.133 393.533 243.033 385.6 236.5C377.667 229.5 366 226 350.6 226C340.333 226.467 329.833 228.8 319.1 233C308.833 236.733 300.667 242.8 294.6 251.2C298.333 255.4 300.667 260.067 301.6 265.2C302.533 269.867 303 274.067 303 277.8C303 286.2 299.733 295.067 293.2 304.4C286.667 313.267 276.167 317.467 261.7 317C249.1 316.533 239.3 312.1 232.3 303.7C225.767 295.3 222.5 285.267 222.5 273.6C222.5 255.867 228.8 240.467 241.4 227.4C254.467 213.867 271.967 203.367 293.9 195.9C315.833 187.967 340.333 184 367.4 184C407.533 184 438.333 194.5 459.8 215.5C481.267 236.5 491.767 270.1 491.3 316.3C491.3 332.633 491.3 347.567 491.3 361.1C491.3 374.167 491.067 387.467 490.6 401C490.6 414.067 490.6 428.767 490.6 445.1C490.6 452.1 490.367 460.967 489.9 471.7C489.433 481.967 488.733 492.233 487.8 502.5C496.2 501.567 504.6 501.1 513 501.1C521.867 500.633 529.1 500.167 534.7 499.7V545.2H413.6ZM405.9 380.7C391.9 381.633 378.133 383.967 364.6 387.7C351.067 390.967 338.933 395.633 328.2 401.7C317.467 407.767 308.833 415.467 302.3 424.8C296.233 433.667 293.433 443.933 293.9 455.6C294.367 470.067 299.033 480.8 307.9 487.8C316.767 494.333 327.033 497.6 338.7 497.6C352.233 497.6 364.367 494.8 375.1 489.2C386.3 483.6 396.567 476.133 405.9 466.8C405.9 462.133 405.9 457.233 405.9 452.1C405.9 446.967 405.9 441.833 405.9 436.7C405.9 430.167 405.9 422 405.9 412.2C405.9 402.4 405.9 391.9 405.9 380.7Z" fill='#fff'/>
</svg>
