<svg width="100" height="100" viewBox="0 0 740 740" fill="#5FE11E" xmlns="http://www.w3.org/2000/svg">
  <path d="M0 370C0 70 173 0 370 0C567 0 740 70 740 370C740 670 567 740 370 740C173 740 0 670 0 370Z" />
  <path d="M359.763 269.875C357.099 269.875 354.769 268.876 352.772 266.879C350.774 264.881 349.775 262.551 349.775 259.888V219.938C349.775 205.955 354.603 194.137 364.257 184.482C373.912 174.827 385.73 170 399.713 170H439.663C442.326 170 444.657 170.999 446.654 172.996C448.652 174.994 449.65 177.324 449.65 179.988V219.938C449.65 233.92 444.823 245.739 435.169 255.393C425.514 265.048 413.695 269.875 399.713 269.875H359.763ZM239.913 389.725C220.603 389.725 204.124 382.901 190.474 369.251C176.825 355.601 170 339.122 170 319.813V269.875C170 264.216 171.914 259.471 175.743 255.643C179.571 251.814 184.315 249.9 189.975 249.9H239.913C259.222 249.9 275.701 256.725 289.351 270.375C303 284.024 309.825 300.504 309.825 319.813V369.75C309.825 375.41 307.911 380.154 304.082 383.983C300.254 387.811 295.51 389.725 289.85 389.725H239.913ZM449.65 569.501C436.667 569.501 424.265 567.503 412.447 563.508C400.628 559.513 389.892 554.02 380.237 547.029L363.758 563.508C360.096 567.17 355.435 569.001 349.775 569.001C344.116 569.001 339.455 567.17 335.793 563.508C332.131 559.846 330.3 555.185 330.3 549.526C330.3 543.866 332.131 539.205 335.793 535.543L352.272 519.064C345.281 509.409 339.788 498.672 335.793 486.854C331.798 475.035 329.8 462.634 329.8 449.65C329.8 416.359 341.452 387.978 364.757 364.507C388.061 341.036 416.359 329.301 449.65 329.301H530.05C541.036 329.301 550.441 333.213 558.265 341.036C566.088 348.86 570 358.265 570 369.251V449.65C570 482.942 558.265 511.24 534.794 534.544C511.323 557.849 482.942 569.501 449.65 569.501ZM449.65 529.551C471.956 529.551 490.766 521.727 506.08 506.08C521.394 490.433 529.051 471.623 529.051 449.65V369.75H449.65C427.678 369.75 408.868 377.491 393.221 392.971C377.574 408.452 369.75 427.345 369.75 449.65C369.75 457.308 370.666 464.548 372.497 471.373C374.328 478.198 377.074 484.607 380.737 490.599L435.668 435.668C439.33 432.006 443.991 430.175 449.65 430.175C455.31 430.175 459.971 432.006 463.633 435.668C467.295 439.33 469.126 443.991 469.126 449.65C469.126 455.31 467.295 459.971 463.633 463.633L408.702 518.564C414.694 522.226 421.103 524.973 427.928 526.804C434.752 528.635 441.993 529.551 449.65 529.551Z" fill="white"/>
</svg>
