<svg height="140" viewBox="0 0 740 1008" xmlns="http://www.w3.org/2000/svg">
  <path d="M300.132 901.09H308.088V973H302.427L301.203 963.973H300.897C298.449 966.625 295.185 969.022 291.105 971.164C287.025 973.204 282.231 974.224 276.723 974.224C269.277 974.224 263.259 972.235 258.669 968.257C254.181 964.177 251.937 957.853 251.937 949.285V901.09H259.893V947.602C259.893 951.58 260.352 954.895 261.27 957.547C262.188 960.097 263.463 962.137 265.095 963.667C266.727 965.197 268.665 966.268 270.909 966.88C273.255 967.492 275.754 967.798 278.406 967.798C282.996 967.798 287.229 966.727 291.105 964.585C295.083 962.443 298.092 959.893 300.132 956.935V901.09ZM367.842 907.21H343.668V954.334C343.668 959.128 344.739 962.392 346.881 964.126C349.023 965.758 351.981 966.574 355.755 966.574C358.713 966.574 361.467 966.319 364.017 965.809C366.567 965.197 368.709 964.585 370.443 963.973L371.667 969.94C369.627 970.756 367.128 971.47 364.17 972.082C361.212 972.694 357.948 973 354.378 973C348.258 973 343.617 971.572 340.455 968.716C337.293 965.758 335.712 961.321 335.712 955.405V907.21H322.707V901.09H335.712V878.14H343.668V901.09H367.842V907.21ZM386.722 973V901.09H394.678V973H386.722ZM390.853 882.577C389.221 882.577 387.793 882.067 386.569 881.047C385.447 879.925 384.886 878.395 384.886 876.457C384.886 874.417 385.447 872.836 386.569 871.714C387.691 870.592 389.068 870.031 390.7 870.031C392.23 870.031 393.556 870.592 394.678 871.714C395.902 872.734 396.514 874.315 396.514 876.457C396.514 878.497 395.953 880.027 394.831 881.047C393.709 882.067 392.383 882.577 390.853 882.577ZM419.145 973V864.37H427.101V973H419.145ZM487.829 910.117C482.729 907.771 477.17 906.598 471.152 906.598C465.644 906.598 461.513 907.771 458.759 910.117C456.005 912.361 454.628 915.268 454.628 918.838C454.628 922.408 455.801 925.162 458.147 927.1C460.493 928.936 464.624 930.721 470.54 932.455L475.13 933.832C480.944 935.566 485.381 938.116 488.441 941.482C491.501 944.848 493.031 948.979 493.031 953.875C493.031 956.731 492.47 959.434 491.348 961.984C490.226 964.432 488.594 966.574 486.452 968.41C484.31 970.246 481.607 971.674 478.343 972.694C475.181 973.714 471.509 974.224 467.327 974.224C462.737 974.224 458.708 973.816 455.24 973C451.772 972.286 448.712 971.317 446.06 970.093L448.202 963.82C450.854 965.146 453.608 966.166 456.464 966.88C459.32 967.492 462.686 967.798 466.562 967.798C472.376 967.798 476.864 966.676 480.026 964.432C483.188 962.188 484.769 958.975 484.769 954.793C484.769 951.529 483.596 948.724 481.25 946.378C479.006 943.93 474.977 941.788 469.163 939.952L464.267 938.422C452.333 934.648 446.366 928.375 446.366 919.603C446.366 916.747 446.927 914.146 448.049 911.8C449.273 909.352 450.905 907.312 452.945 905.68C455.087 903.946 457.586 902.62 460.442 901.702C463.4 900.682 466.664 900.172 470.234 900.172C473.498 900.172 476.864 900.427 480.332 900.937C483.8 901.447 486.962 902.416 489.818 903.844L487.829 910.117Z" fill='#777'/>
  <path d="M0 370C0 70 173 0 370 0C567 0 740 70 740 370C740 670 567 740 370 740C173 740 0 670 0 370Z" fill='#fafa00'/>
  <path d="M446.379 493.768V303.387C446.379 288.803 443.417 276.157 437.492 265.447C431.796 254.51 423.137 246.079 411.516 240.154C399.895 234.23 385.539 231.268 368.449 231.268C352.499 231.268 338.485 234.002 326.408 239.471C314.559 244.939 305.217 252.117 298.381 261.004C291.773 269.891 288.469 279.461 288.469 289.715H225.236C225.236 276.499 228.654 263.396 235.49 250.408C242.326 237.42 252.124 225.685 264.885 215.203C277.873 204.493 293.368 196.062 311.369 189.91C329.598 183.53 349.878 180.34 372.209 180.34C399.097 180.34 422.795 184.897 443.303 194.012C464.038 203.126 480.217 216.912 491.838 235.369C503.687 253.598 509.611 276.499 509.611 304.07V476.336C509.611 488.641 510.637 501.743 512.688 515.643C514.966 529.542 518.27 541.505 522.6 551.531L525 557H456.633C453.443 549.708 450.936 540.024 449.113 527.947C447.29 515.643 446.379 504.249 446.379 493.768ZM457.316 332.781L458 377.215H394.084C376.083 377.215 360.018 378.696 345.891 381.658C331.763 384.393 319.914 388.608 310.344 394.305C300.773 400.001 293.482 407.179 288.469 415.838C283.456 424.269 280.949 434.181 280.949 445.574C280.949 457.195 283.57 467.791 288.811 477.361C294.051 486.932 301.913 494.565 312.395 500.262C323.104 505.73 336.206 508.465 351.701 508.465C371.07 508.465 388.16 504.363 402.971 496.16C417.782 487.957 429.517 477.931 438.176 466.082C447.062 454.233 451.848 442.726 452.531 431.561L479.533 461.98C477.938 471.551 473.609 482.146 466.545 493.768C459.481 505.389 450.025 516.554 438.176 527.264C426.555 537.745 412.655 546.518 396.477 553.582C380.526 560.418 362.525 563.836 342.473 563.836C317.408 563.836 295.419 558.937 276.506 549.139C257.821 539.34 243.238 526.238 232.756 509.832C222.502 493.198 217.375 474.627 217.375 454.119C217.375 434.295 221.249 416.863 228.996 401.824C236.743 386.557 247.909 373.911 262.492 363.885C277.076 353.631 294.621 345.883 315.129 340.643C335.637 335.402 358.537 332.781 383.83 332.781H457.316Z" fill='#fff'/>
</svg>
